<?xml version="1.0" encoding="utf-8"?>
<!-- Generator: Adobe Illustrator 16.0.0, SVG Export Plug-In . SVG Version: 6.00 Build 0)  -->
<!DOCTYPE svg PUBLIC "-//W3C//DTD SVG 1.1//EN" "http://www.w3.org/Graphics/SVG/1.1/DTD/svg11.dtd">
<svg version="1.1" id="Layer_1" xmlns="http://www.w3.org/2000/svg" xmlns:xlink="http://www.w3.org/1999/xlink" x="0px" y="0px"
	 width="701.034px" height="875px" viewBox="0 0 701.034 875" enable-background="new 0 0 701.034 875" xml:space="preserve">
<g>
	<g>
		<path fill-rule="evenodd" clip-rule="evenodd" d="M91.98,0L26.82,45.171l11.012,64.299l88.987,31.202l-89.68-19.358
			c0,0,6.449,40.01,4.514,58.722c18.066,1.936,50.97,4.517,50.97,4.517l60.646-38.717l68.385,10.324l-67.096-1.289l-62.582,38.07
			l-55.483,9.679l20.645,69.691c0,0-41.938,13.55-52.259,20.649c-1.132,8.31-1.372,18.601-0.349,27.785
			c-2.068,3.619-1.465,9.566-1.265,13.575c0.211,7.174,1.391,14.638-1.203,22.237c-2.808,8.233-2.979,17.194,0.923,24.754
			c10.456,20.306,20.239,41.007,33.671,59.71c7.345,10.205,9.031,22.361,8.468,34.604c-0.196,4.435-3.267,8.749-3.504,13.194
			c-0.439,8.682-0.095,17.473,0.438,26.184c0.861,13.951,2.144,27.877,3.239,41.798c0.197,2.587-0.03,5.324,0.809,7.694
			c2.541,7.373,5.439,14.651,8.393,21.877c3.769,9.24,5.924,18.598,4.801,28.724c-0.809,7.202,1.905,13.585,6.922,18.874
			c3.758,3.967,6.865,4.662,10.494,2.359c3.318-2.117,4.434-6.012,2.582-10.644c-1.127-2.802-2.635-5.543-4.359-8.072
			c-4.389-6.435-6.521-13.396-6.256-21.245c0.275-8.144,0.303-16.311-0.012-24.458c-0.279-7.638-0.265-15.503-2.049-22.86
			c-1.788-7.44-1.312-14.114,1.093-21.139c2.053-5.933,3.391-12.084,4.896-18.179c0.722-2.832,0.982-5.771,1.724-8.575
			c0.333-1.143,1.429-2.091,2.196-3.108c0.938,0.779,2.079,1.399,2.832,2.341c4.951,6.246,9.639,12.73,14.795,18.795
			c3.018,3.547,6.775,6.484,9.954,9.452c-2.515,3.471-4.669,6.084-6.441,8.976c-2.982,4.828-4.249,10.111-3.402,15.869
			c1.005,6.515,1.637,13.078,2.805,19.547c0.608,3.301-0.477,5.181-3.187,6.73c-3.603,2.038-6.767,4.549-5.312,9.369
			c0.608,2.064,1.497,4.25,2.915,5.826c4.245,4.775,10.078,8.686,10.939,15.51c1.101,8.609,8.895,18.904,13.17,17.449
			c2.881-5.479,3.614-10.193,0.383-15.041c-0.911-1.368-1.285-3.092-1.826-4.681c-3.387-9.664-3.346-19.729-2.566-29.665
			c1.006-12.666,2.487-25.219,8.879-36.864c2.359-4.287,2.412-10.356,2.117-15.517c-0.298-5.108-2.593-10.068-3.651-15.17
			c-3.641-17.604-12.611-32.27-25.094-44.766c-3.614-3.63-5.466-7.188-5.183-11.971c0.922-15.443,2.064-30.864,2.922-46.311
			c0.272-4.857,1.614-10.736-0.506-14.427c-3.093-5.363-0.76-8.683,0.893-13c1.398-3.639,2.736-7.584,2.736-11.396
			c-0.015-11.199-4.631-21.126-9.81-30.817c-1.558-2.966-3.24-5.955-4.23-9.131c-0.107-0.335-0.367-1.592-0.794-3.316
			c20.557-0.265,43.627,1.522,63.725,7.771c16.772-12.26,50.322-40.652,50.322-40.652l-32.261-23.875l34.839-56.14l-16.127-18.714
			l19.355,14.195l13.549-17.422l-43.228,76.789l29.679,21.938l11.613-16.131l22.579-1.291l28.386-76.143l-22.579,81.949
			l-24.515,1.936l-14.195,16.134l-49.677,40.653c0,0,38.71,14.842,55.483,96.792c9.031-57.431,19.354-110.343,19.354-110.343
			l30.321-1.291l-25.161,7.744l-25.161,137.445l61.289,16.779L218.43,547.2l14.191,65.173l-33.546,59.368L239.725,875h461.31V0
			H91.98z M65.072,328.628c3.651,7.609,7.674,15.033,11.367,22.622c0.503,1.045,0.291,2.605,0,3.849
			c-1.784,7.756-3.746,15.462-5.55,23.219c-0.865,3.891-5.647,6.936-9.234,5.398c-3.267-1.374-2.174-3.889-0.949-6.142
			c3.093-5.85,2.435-11.539-0.677-17.112c-0.366-0.677-0.703-1.442-1.271-1.906c-2.025-1.682-15.566-0.333-17.434,1.575
			c-6.665,6.91-7.538,9.688-2.737,20.143c1.138,2.505,2.465,4.927,3.784,7.547c-0.934,0.531-1.693,0.992-2.484,1.416
			c-9.401,5.044-9.147,4.911-13.386-4.751c-2.393-5.427-5.942-10.338-8.838-15.539c-0.677-1.191-1.523-2.993-1.097-4
			c3.52-8.256,2.435-16.928,2.537-25.493c0.023-1.308,0.023-2.614,0.023-3.924c1.261-1.288,2.713-2.48,4.464-3.209
			c3.623-1.509,19.678-4.573,40.628-5.885C64.686,327.776,65.072,328.628,65.072,328.628z"/>
	</g>
</g>
</svg>
