<?xml version="1.0" encoding="utf-8"?>
<!-- Generator: Adobe Illustrator 16.0.0, SVG Export Plug-In . SVG Version: 6.00 Build 0)  -->
<!DOCTYPE svg PUBLIC "-//W3C//DTD SVG 1.1//EN" "http://www.w3.org/Graphics/SVG/1.1/DTD/svg11.dtd">
<svg version="1.1" id="Layer_1" xmlns="http://www.w3.org/2000/svg" xmlns:xlink="http://www.w3.org/1999/xlink" x="0px" y="0px"
	 width="23.994px" height="24.289px" viewBox="0 0 23.994 24.289" enable-background="new 0 0 23.994 24.289" xml:space="preserve">
<g>
	<g>
		<path fill="#28BFA8" d="M15.827,6.99c0.413,0,1.317,0.392,1.317,0.392V4.246c0,0-1.782,0-3.486,0
			c-1.706,0-2.015,1.464-2.015,2.091c0,0.627,0,3.085,0,3.085h-2.17v3.085h2.17v7.738h2.917v-7.817h2.584v-2.98h-2.584
			c0,0,0-0.993,0-1.647C14.561,7.147,15.414,6.99,15.827,6.99z M1.228,12.144c0-3.098,1.309-6.059,3.59-8.126L4.095,3.2
			c-2.511,2.275-3.952,5.535-3.952,8.944c0,2.622,0.82,5.112,2.372,7.202c1.5,2.021,3.634,3.539,6.01,4.274l0.317-1.05
			C4.287,21.16,1.228,16.97,1.228,12.144z M11.997,0.145c-2.375,0-4.667,0.709-6.628,2.049l0.607,0.911
			c1.781-1.218,3.863-1.862,6.021-1.862c5.938,0,10.77,4.89,10.77,10.901c0,1.667-0.362,3.268-1.077,4.756l0.977,0.479
			c0.787-1.639,1.186-3.4,1.186-5.236C23.852,5.528,18.533,0.145,11.997,0.145z M11.997,23.046c-0.72,0-1.441-0.073-2.142-0.216
			l-0.214,1.077c0.771,0.157,1.564,0.237,2.356,0.237c4.172,0,7.958-2.155,10.131-5.767l-0.927-0.57
			C19.228,21.088,15.786,23.046,11.997,23.046z"/>
	</g>
</g>
</svg>
