<?xml version="1.0" encoding="utf-8"?>
<!-- Generator: Adobe Illustrator 16.0.0, SVG Export Plug-In . SVG Version: 6.00 Build 0)  -->
<!DOCTYPE svg PUBLIC "-//W3C//DTD SVG 1.1//EN" "http://www.w3.org/Graphics/SVG/1.1/DTD/svg11.dtd">
<svg version="1.1" id="Layer_1" xmlns="http://www.w3.org/2000/svg" xmlns:xlink="http://www.w3.org/1999/xlink" x="0px" y="0px"
	 width="24px" height="24px" viewBox="0 0 24 24" enable-background="new 0 0 24 24" xml:space="preserve">
<g>
	<g>
		<path fill="#28BFA8" d="M12,24c-0.802,0-1.604-0.08-2.385-0.237l0.217-1.076c0.709,0.143,1.438,0.215,2.168,0.215
			c3.836,0,7.319-1.958,9.317-5.238l0.938,0.571C20.056,21.845,16.223,24,12,24z M8.485,23.477C6.08,22.741,3.919,21.223,2.4,19.202
			C0.83,17.111,0,14.621,0,12c0-3.409,1.458-6.67,4-8.944l0.732,0.818C2.423,5.94,1.098,8.902,1.098,12
			c0,4.826,3.098,9.017,7.708,10.427L8.485,23.477z M22.8,17.236l-0.988-0.479c0.723-1.489,1.089-3.09,1.089-4.757
			c0-6.011-4.891-10.901-10.902-10.901c-2.185,0-4.292,0.643-6.095,1.861L5.291,2.05C7.275,0.709,9.596,0,12,0
			c6.617,0,12,5.383,12,12C24,13.835,23.596,15.597,22.8,17.236z"/>
	</g>
</g>
<g>
	<path fill="#28BFA8" d="M14.484,6.837c0.818,0,1.5,0.256,1.971,0.738c0.463,0.475,0.708,1.146,0.708,1.941v4.967
		c0,0.797-0.253,1.471-0.733,1.949c-0.479,0.478-1.152,0.73-1.946,0.73H9.516c-0.817,0-1.498-0.256-1.97-0.74
		c-0.464-0.477-0.709-1.146-0.709-1.939V9.517c0-1.628,1.096-2.68,2.791-2.68H14.484 M14.484,5.721H9.628
		c-2.298,0-3.907,1.544-3.907,3.796v4.967c0,2.187,1.47,3.796,3.795,3.796h4.968c2.232,0,3.795-1.554,3.795-3.796V9.517
		C18.279,7.321,16.81,5.721,14.484,5.721L14.484,5.721z"/>
	<g>
		<path fill="#28BFA8" d="M12.014,9.879c1.162,0,2.107,0.945,2.107,2.107c0,1.161-0.945,2.106-2.107,2.106
			c-1.162,0-2.107-0.945-2.107-2.106C9.907,10.824,10.852,9.879,12.014,9.879 M12.014,8.763c-1.78,0-3.224,1.443-3.224,3.224
			s1.443,3.224,3.224,3.224c1.78,0,3.223-1.443,3.223-3.224S13.794,8.763,12.014,8.763L12.014,8.763z"/>
	</g>
	<circle fill="#28BFA8" cx="15.335" cy="8.665" r="0.768"/>
</g>
</svg>
