<?xml version="1.0" encoding="utf-8"?>
<!-- Generator: Adobe Illustrator 16.0.0, SVG Export Plug-In . SVG Version: 6.00 Build 0)  -->
<!DOCTYPE svg PUBLIC "-//W3C//DTD SVG 1.1//EN" "http://www.w3.org/Graphics/SVG/1.1/DTD/svg11.dtd">
<svg version="1.1" id="Layer_1" xmlns="http://www.w3.org/2000/svg" xmlns:xlink="http://www.w3.org/1999/xlink" x="0px" y="0px"
	 width="12.133px" height="19px" viewBox="0 0 12.133 19" enable-background="new 0 0 12.133 19" xml:space="preserve">
<path fill="#FFFFFF" d="M10.685,9.005V4.617C10.685,2.066,8.617,0,6.066,0S1.448,2.066,1.448,4.617v4.388
	C0.547,10.063,0,11.434,0,12.934C0,16.283,2.716,19,6.066,19s6.066-2.717,6.066-6.066C12.133,11.434,11.586,10.063,10.685,9.005z
	 M7.15,15.112c0.202,0.552-0.113,1.004-0.701,1.004H5.684c-0.588,0-0.903-0.452-0.701-1.004l0.575-1.569
	c-0.568-0.208-0.977-0.749-0.977-1.389c0-0.82,0.665-1.485,1.485-1.485s1.485,0.665,1.485,1.485c0,0.64-0.408,1.181-0.977,1.389
	L7.15,15.112z M9.199,7.746C8.284,7.191,7.214,6.867,6.066,6.867S3.849,7.191,2.934,7.746V4.617c0-1.728,1.405-3.133,3.133-3.133
	S9.199,2.89,9.199,4.617V7.746z"/>
</svg>
