<?xml version="1.0" encoding="utf-8"?>
<!-- Generator: Adobe Illustrator 16.0.0, SVG Export Plug-In . SVG Version: 6.00 Build 0)  -->
<!DOCTYPE svg PUBLIC "-//W3C//DTD SVG 1.1//EN" "http://www.w3.org/Graphics/SVG/1.1/DTD/svg11.dtd">
<svg version="1.1" id="Layer_1" xmlns="http://www.w3.org/2000/svg" xmlns:xlink="http://www.w3.org/1999/xlink" x="0px" y="0px"
	 width="235.045px" height="209px" viewBox="0 0 235.045 209" enable-background="new 0 0 235.045 209" xml:space="preserve">
<g>
	<g>
		<path d="M71.712,121.985H48.07v-38.16c0-0.163-0.132-0.294-0.294-0.294h-9.81c-0.162,0-0.294,0.131-0.294,0.294v38.455v7.062
			v1.767c0,0.162,0.132,0.294,0.294,0.294h33.747c0.162,0,0.294-0.132,0.294-0.294v-8.829
			C72.006,122.117,71.874,121.985,71.712,121.985z"/>
	</g>
	<g>
		<rect x="86.132" y="83.531" width="10.202" height="47.872"/>
	</g>
	<g>
		<polygon points="147.935,93.537 147.935,83.531 121.644,83.531 117.72,83.531 111.246,83.531 111.246,131.403 121.644,131.403 
			121.644,112.961 144.599,112.961 144.599,103.543 121.644,103.543 121.644,93.537 		"/>
	</g>
	<g>
		<polygon points="197.965,83.531 158.137,83.531 158.137,92.948 172.851,92.948 172.851,131.403 183.446,131.403 183.446,92.948 
			197.965,92.948 		"/>
	</g>
	<g>
		<rect x="194.826" y="120.22" width="11.183" height="11.184"/>
	</g>
	<g>
		<g>
			<polygon points="194.518,138.859 191.119,138.859 229.946,206.057 5.103,206.057 43.987,138.859 40.586,138.859 0,209 
				235.045,209 			"/>
		</g>
		<g>
			<polygon points="76.348,77.057 79.748,77.057 117.606,11.631 155.41,77.057 158.809,77.057 119.307,8.691 122.917,2.453 
				120.37,0.979 117.608,5.752 114.285,0 111.737,1.472 115.908,8.69 			"/>
		</g>
	</g>
	<g>
		<rect x="46.892" y="167.209" width="34.531" height="1.766"/>
	</g>
	<g>
		<rect x="153.428" y="167.209" width="34.531" height="1.766"/>
	</g>
	<g>
		<g>
			<path fill-rule="evenodd" clip-rule="evenodd" d="M130.833,54.646c-0.177-0.521-0.151-1.044-0.235-1.561
				c-0.04-0.253-0.051-0.512-0.108-0.76c-0.113-0.5-0.207-1.009-0.385-1.484c-0.171-0.457-0.083-0.988-0.419-1.393
				c-0.024-0.029-0.032-0.08-0.035-0.121c-0.024-0.454-0.264-0.808-0.541-1.138c-0.263-0.313-0.554-0.604-0.807-0.925
				c-0.246-0.31-0.406-0.706-0.698-0.953c-0.525-0.446-0.917-1.008-1.424-1.473c-0.783-0.719-1.645-1.282-2.551-1.807
				c-1.818-1.053-3.759-1.667-5.875-1.678c-0.18-0.001-0.373-0.075-0.54-0.156c-0.244-0.12-0.455-0.122-0.695,0.015
				c-0.148,0.085-0.335,0.149-0.503,0.144c-1.855-0.058-3.568,0.438-5.191,1.295c-0.458,0.242-0.872,0.585-1.42,0.539
				c-0.034,0.69-0.067,1.344-0.1,2.018c0.084,0,0.257,0.049,0.377-0.01c0.271-0.133,0.519-0.313,0.769-0.485
				c0.137-0.094,0.243-0.234,0.387-0.316c0.487-0.278,0.983-0.54,1.515-0.829c0.014,0.5,0.096,1.018-0.084,1.546
				c-0.194,0.573-0.206,1.196,0.064,1.722c0.727,1.41,1.407,2.851,2.341,4.15c0.511,0.71,0.628,1.554,0.589,2.405
				c-0.014,0.31-0.227,0.608-0.243,0.917c-0.032,0.604-0.007,1.215,0.03,1.821c0.06,0.97,0.148,1.938,0.226,2.906
				c0.014,0.179-0.002,0.369,0.055,0.534c0.178,0.513,0.379,1.019,0.584,1.521c0.261,0.642,0.412,1.292,0.333,1.996
				c-0.056,0.5,0.132,0.944,0.482,1.312c0.26,0.275,0.478,0.324,0.729,0.164c0.232-0.148,0.309-0.419,0.18-0.739
				c-0.079-0.197-0.183-0.387-0.303-0.562c-0.306-0.447-0.454-0.932-0.436-1.478c0.019-0.566,0.021-1.135,0-1.7
				c-0.021-0.532-0.02-1.078-0.143-1.59c-0.125-0.517-0.091-0.98,0.076-1.47c0.142-0.411,0.235-0.84,0.341-1.263
				c0.049-0.197,0.066-0.402,0.12-0.597c0.022-0.079,0.1-0.145,0.151-0.217c0.067,0.054,0.146,0.098,0.198,0.163
				c0.344,0.435,0.67,0.886,1.029,1.308c0.21,0.247,0.472,0.45,0.693,0.656c-0.176,0.241-0.326,0.424-0.449,0.623
				c-0.207,0.337-0.296,0.705-0.235,1.104c0.068,0.452,0.113,0.909,0.194,1.358c0.042,0.229-0.033,0.36-0.222,0.468
				c-0.25,0.142-0.471,0.316-0.37,0.652c0.043,0.143,0.105,0.295,0.202,0.403c0.297,0.333,0.702,0.604,0.762,1.079
				c0.076,0.599,0.589,0.805,0.916,1.213c0.199-0.381,0.25-0.708,0.026-1.046c-0.064-0.094-0.089-0.215-0.127-0.325
				c-0.235-0.672-0.232-1.371-0.178-2.062c0.07-0.882,0.173-1.754,0.617-2.562c0.165-0.3,0.168-0.721,0.147-1.08
				c-0.021-0.354-0.18-0.699-0.253-1.054c-0.252-1.224-0.877-2.244-1.745-3.113c-0.251-0.251-0.381-0.498-0.361-0.831
				c0.064-1.073,0.144-2.146,0.204-3.219c0.02-0.339,0.113-0.747-0.035-1.004c-0.215-0.372-0.053-0.604,0.062-0.903
				c0.097-0.253,0.191-0.527,0.19-0.792c0-0.778-0.321-1.47-0.681-2.143c-0.11-0.206-0.227-0.414-0.296-0.635
				c-0.035-0.109-0.01-0.318,0.062-0.361c0.1-0.06,0.271-0.022,0.404,0.002c0.193,0.038,0.378,0.122,0.574,0.15
				c0.261,0.038,0.536,0.007,0.791,0.065c2.44,0.563,4.483,1.844,6.298,3.526c0.148,0.138,0.295,0.283,0.414,0.446
				c1.231,1.674,2.233,3.461,2.694,5.512c0.109,0.491-0.043,1.024,0.232,1.489c-0.002,1.282,0.043,2.575-0.335,3.817
				c-0.282,0.926-0.627,1.834-0.991,2.73c-0.116,0.286-0.128,0.644-0.464,0.841c-0.133,0.078,0.009,0.395,0.178,0.372
				c0.287-0.039,0.425,0.141,0.597,0.297c0.202,0.185,0.72,0.15,0.811-0.053c0.329-0.74,0.68-1.472,0.962-2.229
				c0.211-0.565,0.334-1.163,0.489-1.749c0.051-0.193,0.077-0.395,0.114-0.592c0.033-0.188,0.072-0.373,0.096-0.562
				c0.044-0.337,0.085-0.674,0.115-1.012C130.809,55.479,130.958,55.016,130.833,54.646z M117.44,45.013l-0.385,1.615
				c-0.062,0.271-0.394,0.48-0.642,0.376c-0.229-0.097-0.152-0.271-0.068-0.429c0.216-0.406,0.17-0.802-0.046-1.189
				c-0.025-0.046-0.049-0.1-0.088-0.133c-0.141-0.116-1.082-0.023-1.21,0.11l-0.192,1.4c0.08,0.175,0.172,0.342,0.264,0.524
				c-0.065,0.037-0.118,0.069-0.173,0.098c-0.654,0.352-0.635,0.342-0.93-0.33c-0.167-0.376-0.413-0.718-0.615-1.08
				c-0.046-0.083-0.105-0.207-0.075-0.277c0.243-0.575,0.167-1.178,0.175-1.772c0.003-0.222,0.001-0.444,0.001-0.673
				c0.826-0.155,1.621-0.302,2.414-0.455c0.356-0.068,0.615,0.028,0.781,0.375c0.253,0.529,0.533,1.045,0.79,1.573
				C117.475,44.817,117.459,44.927,117.44,45.013z"/>
		</g>
		<g>
			<path fill-rule="evenodd" clip-rule="evenodd" d="M105.171,47.174c0.164-0.274,0.328-0.549,0.491-0.824
				c0.011-0.019,0.018-0.046,0.034-0.054c0.376-0.169,0.741-0.402,1.137-0.484c0.379-0.078,0.597,0.236,0.521,0.622
				c-0.073,0.37-0.151,0.739-0.231,1.132c-0.143,0.221-0.305,0.486-0.482,0.74c-1.149,1.638-1.745,3.486-2.039,5.438
				c-0.378,2.518,0.273,4.852,1.369,7.086c1.381,2.819,3.671,4.607,6.546,5.723c0.33,0.128,0.645,0.294,0.946,0.433
				c-0.02,0.099-0.019,0.114-0.025,0.119c-0.387,0.25-0.646,0.55-0.641,1.065c0.002,0.199-0.282,0.138-0.432,0.071
				c-0.759-0.342-1.524-0.672-2.264-1.051c-3.054-1.564-5.004-4.097-6.254-7.225c-0.14-0.349-0.184-0.735-0.271-1.104
				c-0.013-0.051-0.003-0.115-0.031-0.154c-0.349-0.503-0.258-1.118-0.429-1.667c-0.047-0.153-0.007-0.336-0.007-0.505
				c0-0.127,0.046-0.278-0.007-0.379c-0.289-0.553-0.194-1.123-0.102-1.69c0.184-1.137,0.325-2.285,0.595-3.4
				c0.236-0.974,0.669-1.89,1.227-2.735c0.063-0.096,0.156-0.223,0.137-0.314c-0.055-0.258,0.044-0.355,0.273-0.433
				c0.049-0.017,0.023-0.255,0.033-0.391C105.234,47.186,105.202,47.18,105.171,47.174z"/>
		</g>
		<g>
			<path fill-rule="evenodd" clip-rule="evenodd" d="M126.114,63.404c0.071,0.229,0.122,0.411,0.184,0.59
				c0.083,0.236,0.172,0.438,0.5,0.438c0.126,0,0.271,0.179,0.363,0.307c0.021,0.029-0.126,0.209-0.222,0.287
				c-0.307,0.249-0.632,0.475-0.938,0.725c-0.256,0.209-0.53,0.418-0.408,0.875c-0.136-0.056-0.208-0.088-0.282-0.114
				c-0.058-0.021-0.132-0.067-0.176-0.049c-0.365,0.153-0.753,0.275-1.083,0.486c-1.669,1.069-3.506,1.663-5.453,1.897
				c-0.64,0.077-1.288,0.089-1.926,0.226c-0.218,0.046-0.466-0.019-0.695-0.058c-0.363-0.062-0.722-0.147-1.141-0.235
				c0.253-0.394,0.495-0.799,0.771-1.178c0.072-0.099,0.256-0.169,0.384-0.164c3.891,0.185,7.146-1.251,9.937-3.881
				C125.975,63.514,126.025,63.477,126.114,63.404z"/>
		</g>
	</g>
	<g>
		<path d="M140.311,190.012l-7.597-7.598c0,0-0.166-0.836-0.27-0.94l-0.885-0.886c-0.104-0.104-0.273-0.104-0.377,0l-0.546,0.546
			l-25.153-24.809l0.718-0.719c0.104-0.104,0.104-0.272,0-0.377l-0.886-0.886c-0.104-0.104-0.939-0.269-0.94-0.269l-7.598-7.598
			c-0.202-0.202-0.53-0.202-0.732,0l-1.068,1.068c-0.202,0.202-0.202,0.53,0,0.731l7.598,7.599l0,0c0,0,0.165,0.836,0.269,0.94
			l0.886,0.886c0.104,0.104,0.273,0.104,0.377,0l0.545-0.545l25.153,24.809l-0.717,0.718c-0.104,0.104-0.104,0.272,0,0.377
			l0.886,0.885c0.104,0.104,0.939,0.27,0.94,0.27l7.598,7.598c0.202,0.202,0.53,0.203,0.733,0l1.068-1.068
			C140.514,190.542,140.513,190.214,140.311,190.012z"/>
	</g>
	<g>
		<path d="M140.997,147.797l-1.047-1.09c-0.198-0.206-0.526-0.212-0.733-0.014l-7.743,7.449c-0.001,0-0.839,0.148-0.946,0.251
			l-0.903,0.868c-0.106,0.103-0.109,0.271-0.007,0.377l0.706,0.733l-25.835,24.516l-0.535-0.556
			c-0.102-0.106-0.271-0.109-0.377-0.008l-0.902,0.868c-0.106,0.103-0.287,0.936-0.287,0.936l-7.743,7.45
			c-0.206,0.198-0.212,0.526-0.014,0.731l1.047,1.09c0.199,0.206,0.526,0.212,0.733,0.014l7.743-7.449
			c0.002-0.001,0.84-0.149,0.946-0.251l0.903-0.869c0.106-0.102,0.109-0.27,0.007-0.376l-0.704-0.731l25.835-24.516l0.533,0.554
			c0.102,0.106,0.271,0.109,0.377,0.007l0.902-0.867c0.106-0.104,0.288-0.936,0.288-0.936l7.743-7.45
			C141.189,148.33,141.195,148.002,140.997,147.797z"/>
	</g>
	<g>
		<path d="M93.22,164.732c0.993,0,2.759,0.588,2.759,2.391s-2.594,3.035-3.164,3.605c1.104,0,2.208,0,2.575,0
			c0.368,0,0.589,0.258,0.589,0.479s0,0.552,0,0.699c0,0.146-0.11,0.459-0.46,0.459s-4.359,0-4.58,0s-0.432-0.11-0.432-0.432
			c0-0.322,0-0.433,0-0.653s0.156-0.46,0.396-0.699c0.239-0.239,2.354-1.998,2.759-2.305s0.662-0.712,0.662-1.116
			s-0.358-0.956-1.081-0.956c-0.722,0-1.157,0.569-1.304,0.754c-0.147,0.184-0.417,0.343-0.671,0.089
			c-0.312-0.312-0.102-0.096-0.31-0.304c-0.208-0.208-0.285-0.383-0.086-0.582S92.227,164.732,93.22,164.732z"/>
	</g>
	<g>
		<path d="M101.773,164.829c-1.757,0-3.182,1.717-3.182,3.835s1.425,3.835,3.182,3.835s3.182-1.717,3.182-3.835
			S103.53,164.829,101.773,164.829z M101.773,171.11c-0.957,0-1.732-1.096-1.732-2.446c0-1.352,0.775-2.446,1.732-2.446
			c0.956,0,1.731,1.095,1.731,2.446C103.504,170.015,102.729,171.11,101.773,171.11z"/>
	</g>
	<g>
		<path d="M134.568,164.935c0,0-0.621,0-0.855,0c-0.327,0-1.349,0.369-1.728,0.499c-0.262,0.09-0.272,0.317-0.211,0.584
			c0.023,0.099,0.052,0.205,0.072,0.314c0.074,0.405,0.35,0.368,0.57,0.313c0.177-0.045,0.408-0.09,0.92-0.183v5.553
			c0,0.163,0.131,0.295,0.294,0.295h0.938c0.163,0,0.294-0.132,0.294-0.295v-6.787C134.863,165.066,134.731,164.935,134.568,164.935
			z"/>
	</g>
	<g>
		<path d="M142.515,164.889c0.239,0,0.515,0.046,0.515,0.432c0,0.387,0,0.368,0,0.607s-0.11,0.258-0.46,0.258s-1.563,0-1.784,0
			s-1.012,0.019-1.012,0.681s0.11,0.717,0.533,0.717c0.423,0,3.072-0.184,3.072,2.244s-2.115,2.483-2.648,2.483
			c-0.534,0-1.637-0.239-2.667-0.993c-0.258-0.185,0-0.497,0.128-0.607c0.129-0.11,0.239-0.275,0.386-0.386
			c0.147-0.11,0.386-0.276,0.828,0.165c0.441,0.441,0.901,0.497,1.26,0.497c0.359,0,1.333-0.276,1.333-1.104
			c0-0.828-0.699-1.122-1.214-1.122c-1.655,0-1.632,0.324-2.095-0.138c-0.221-0.258-0.168-0.599-0.168-0.984
			c0-0.387,0-1.711,0-2.023s0.184-0.727,0.727-0.727C139.792,164.889,142.515,164.889,142.515,164.889z"/>
	</g>
</g>
</svg>
