<?xml version="1.0" encoding="utf-8"?>
<!-- Generator: Adobe Illustrator 16.0.0, SVG Export Plug-In . SVG Version: 6.00 Build 0)  -->
<!DOCTYPE svg PUBLIC "-//W3C//DTD SVG 1.1//EN" "http://www.w3.org/Graphics/SVG/1.1/DTD/svg11.dtd">
<svg version="1.1" id="Layer_1" xmlns="http://www.w3.org/2000/svg" xmlns:xlink="http://www.w3.org/1999/xlink" x="0px" y="0px"
	 width="41px" height="41.009px" viewBox="0 0 41 41.009" enable-background="new 0 0 41 41.009" xml:space="preserve">
<g>
	<g>
		<path fill-rule="evenodd" clip-rule="evenodd" d="M40.928,19.841c-0.26-0.765-0.222-1.53-0.345-2.288
			c-0.059-0.371-0.074-0.75-0.158-1.114c-0.165-0.732-0.303-1.478-0.564-2.175c-0.251-0.67-0.123-1.448-0.614-2.041
			c-0.037-0.043-0.047-0.117-0.051-0.178c-0.036-0.666-0.387-1.184-0.793-1.667c-0.386-0.459-0.812-0.886-1.183-1.355
			c-0.359-0.454-0.595-1.035-1.022-1.398c-0.77-0.654-1.344-1.477-2.087-2.159c-1.148-1.053-2.412-1.88-3.74-2.648
			c-2.665-1.543-5.509-2.442-8.61-2.459c-0.265-0.001-0.547-0.109-0.792-0.229c-0.356-0.175-0.666-0.178-1.019,0.022
			c-0.217,0.125-0.492,0.219-0.738,0.21c-2.719-0.085-5.23,0.642-7.608,1.897c-0.672,0.355-1.278,0.858-2.083,0.791
			c-0.049,1.011-0.098,1.97-0.146,2.958c0.122,0,0.376,0.071,0.552-0.015c0.397-0.194,0.761-0.458,1.127-0.71
			c0.2-0.138,0.356-0.344,0.567-0.464c0.714-0.409,1.441-0.792,2.22-1.216c0.021,0.733,0.14,1.493-0.123,2.268
			c-0.285,0.839-0.302,1.753,0.094,2.523c1.065,2.067,2.062,4.178,3.431,6.083c0.749,1.042,0.92,2.278,0.864,3.526
			c-0.021,0.453-0.333,0.891-0.356,1.344c-0.046,0.887-0.011,1.781,0.044,2.669c0.088,1.421,0.218,2.841,0.33,4.261
			c0.021,0.262-0.003,0.542,0.082,0.783c0.261,0.751,0.556,1.492,0.856,2.23c0.383,0.94,0.604,1.894,0.489,2.926
			c-0.083,0.732,0.193,1.384,0.706,1.924c0.382,0.403,0.7,0.475,1.069,0.239c0.339-0.216,0.452-0.613,0.263-1.083
			c-0.116-0.288-0.269-0.566-0.444-0.822c-0.448-0.656-0.665-1.366-0.639-2.167c0.027-0.83,0.031-1.663-0.001-2.492
			c-0.029-0.779-0.028-1.58-0.209-2.33c-0.183-0.757-0.133-1.438,0.112-2.155c0.208-0.603,0.345-1.231,0.5-1.851
			c0.072-0.289,0.098-0.589,0.175-0.874c0.033-0.117,0.146-0.213,0.222-0.318c0.098,0.079,0.213,0.143,0.289,0.239
			c0.505,0.638,0.983,1.298,1.509,1.917c0.308,0.362,0.691,0.66,1.015,0.962c-0.258,0.353-0.478,0.622-0.657,0.913
			c-0.304,0.494-0.434,1.034-0.345,1.619c0.099,0.663,0.165,1.333,0.285,1.992c0.062,0.335-0.049,0.527-0.325,0.684
			c-0.367,0.208-0.69,0.464-0.542,0.957c0.062,0.209,0.154,0.432,0.296,0.591c0.435,0.488,1.028,0.886,1.116,1.583
			c0.113,0.876,0.864,1.179,1.343,1.777c0.293-0.559,0.368-1.039,0.039-1.533c-0.094-0.138-0.13-0.315-0.187-0.477
			c-0.345-0.985-0.341-2.009-0.261-3.022c0.102-1.292,0.254-2.569,0.903-3.755c0.242-0.44,0.248-1.057,0.216-1.583
			c-0.031-0.521-0.264-1.025-0.371-1.544c-0.372-1.794-1.286-3.289-2.558-4.563c-0.368-0.368-0.559-0.731-0.529-1.219
			c0.093-1.572,0.21-3.145,0.299-4.718c0.029-0.496,0.166-1.095-0.052-1.472c-0.316-0.546-0.078-0.884,0.09-1.323
			c0.142-0.372,0.28-0.773,0.279-1.161c-0.001-1.142-0.47-2.154-0.998-3.141c-0.161-0.302-0.332-0.607-0.434-0.93
			c-0.051-0.161-0.015-0.468,0.09-0.529c0.146-0.088,0.397-0.034,0.593,0.002c0.284,0.055,0.554,0.179,0.841,0.22
			c0.382,0.056,0.785,0.011,1.158,0.097c3.578,0.826,6.572,2.702,9.231,5.169c0.218,0.201,0.433,0.415,0.607,0.654
			c1.805,2.454,3.273,5.073,3.949,8.079c0.16,0.721-0.063,1.501,0.341,2.183c-0.002,1.879,0.064,3.775-0.491,5.596
			c-0.415,1.356-0.92,2.689-1.453,4.002c-0.171,0.419-0.188,0.944-0.681,1.232c-0.195,0.115,0.014,0.58,0.261,0.545
			c0.421-0.057,0.623,0.207,0.875,0.436c0.296,0.271,1.055,0.221,1.188-0.078c0.482-1.084,0.997-2.157,1.412-3.267
			c0.309-0.828,0.489-1.706,0.715-2.563c0.075-0.285,0.113-0.579,0.167-0.868c0.049-0.275,0.106-0.548,0.141-0.825
			c0.063-0.494,0.125-0.988,0.169-1.483C40.893,21.062,41.111,20.382,40.928,19.841z M21.297,5.72l-0.564,2.367
			c-0.091,0.396-0.578,0.706-0.941,0.551c-0.334-0.141-0.223-0.395-0.1-0.627c0.316-0.596,0.249-1.175-0.068-1.744
			c-0.037-0.067-0.072-0.146-0.129-0.195c-0.208-0.17-1.585-0.033-1.774,0.162l-0.282,2.054c0.117,0.255,0.251,0.5,0.387,0.769
			c-0.095,0.054-0.172,0.1-0.253,0.143C16.612,9.713,16.64,9.7,16.208,8.715c-0.244-0.552-0.605-1.052-0.901-1.583
			c-0.067-0.122-0.154-0.304-0.11-0.406c0.356-0.843,0.246-1.726,0.257-2.598c0.005-0.325,0.002-0.651,0.002-0.986
			c1.21-0.229,2.376-0.443,3.539-0.667c0.522-0.1,0.901,0.042,1.145,0.549c0.372,0.776,0.781,1.531,1.157,2.306
			C21.348,5.434,21.326,5.594,21.297,5.72z"/>
	</g>
	<g>
		<path fill-rule="evenodd" clip-rule="evenodd" d="M3.313,8.887c0.239-0.402,0.48-0.804,0.72-1.208
			c0.016-0.027,0.025-0.068,0.049-0.079c0.552-0.248,1.087-0.59,1.667-0.71c0.556-0.115,0.875,0.346,0.764,0.911
			c-0.107,0.543-0.222,1.084-0.339,1.66c-0.21,0.324-0.447,0.713-0.708,1.085c-1.684,2.399-2.558,5.109-2.988,7.97
			c-0.554,3.689,0.401,7.11,2.006,10.386c2.025,4.132,5.381,6.753,9.595,8.388c0.484,0.188,0.946,0.431,1.387,0.634
			c-0.029,0.145-0.026,0.168-0.036,0.175c-0.567,0.366-0.948,0.806-0.939,1.561c0.003,0.292-0.414,0.202-0.633,0.104
			c-1.111-0.5-2.233-0.984-3.317-1.54c-4.476-2.293-7.335-6.004-9.167-10.589c-0.204-0.511-0.269-1.078-0.396-1.619
			c-0.019-0.075-0.005-0.169-0.045-0.228c-0.511-0.737-0.378-1.638-0.628-2.442c-0.07-0.226-0.011-0.493-0.011-0.74
			c0-0.186,0.067-0.408-0.01-0.555C-0.139,21.243,0,20.406,0.134,19.575c0.27-1.667,0.477-3.35,0.872-4.985
			c0.346-1.427,0.981-2.77,1.798-4.008c0.093-0.141,0.229-0.327,0.2-0.462C2.924,9.742,3.07,9.6,3.405,9.485
			c0.072-0.023,0.034-0.373,0.048-0.571C3.406,8.905,3.359,8.896,3.313,8.887z"/>
	</g>
	<g>
		<path fill-rule="evenodd" clip-rule="evenodd" d="M34.012,32.677c0.104,0.336,0.178,0.603,0.269,0.865
			c0.121,0.347,0.253,0.642,0.732,0.643c0.186,0,0.397,0.261,0.533,0.449c0.031,0.043-0.185,0.306-0.326,0.421
			c-0.45,0.365-0.927,0.696-1.374,1.062c-0.375,0.306-0.778,0.613-0.599,1.283c-0.2-0.081-0.306-0.128-0.414-0.168
			c-0.085-0.031-0.193-0.098-0.258-0.07c-0.536,0.224-1.104,0.403-1.588,0.712c-2.446,1.568-5.139,2.437-7.993,2.781
			c-0.937,0.113-1.888,0.13-2.823,0.331c-0.319,0.067-0.683-0.026-1.02-0.084c-0.532-0.092-1.059-0.217-1.672-0.346
			c0.372-0.576,0.726-1.169,1.131-1.726c0.106-0.145,0.375-0.248,0.563-0.24c5.703,0.271,10.475-1.834,14.565-5.689
			C33.807,32.837,33.881,32.784,34.012,32.677z"/>
	</g>
</g>
</svg>
